<mxfile host="app.diagrams.net" agent="Mozilla/5.0 (Windows NT 10.0; Win64; x64) AppleWebKit/537.36 (KHTML, like Gecko) Chrome/135.0.0.0 Safari/537.36" version="26.2.9">
  <diagram name="Page-1" id="oUtqDp948ikvkqziecsZ">
    <mxGraphModel dx="1428" dy="751" grid="1" gridSize="10" guides="1" tooltips="1" connect="1" arrows="1" fold="1" page="1" pageScale="1" pageWidth="1169" pageHeight="827" math="0" shadow="0">
      <root>
        <mxCell id="0" />
        <mxCell id="1" parent="0" />
        <mxCell id="hO-ZR4G2nl43DT18b6T9-9" value="Modulith(Multi Module Monolith)" style="rounded=0;whiteSpace=wrap;html=1;labelPosition=center;verticalLabelPosition=bottom;align=center;verticalAlign=top;" vertex="1" parent="1">
          <mxGeometry x="232.88" y="175" width="317.12" height="440" as="geometry" />
        </mxCell>
        <mxCell id="hO-ZR4G2nl43DT18b6T9-37" style="edgeStyle=orthogonalEdgeStyle;rounded=0;orthogonalLoop=1;jettySize=auto;html=1;" edge="1" parent="1" source="hO-ZR4G2nl43DT18b6T9-1" target="hO-ZR4G2nl43DT18b6T9-5">
          <mxGeometry relative="1" as="geometry" />
        </mxCell>
        <mxCell id="hO-ZR4G2nl43DT18b6T9-1" value="" style="sketch=0;points=[[0.015,0.015,0],[0.985,0.015,0],[0.985,0.985,0],[0.015,0.985,0],[0.25,0,0],[0.5,0,0],[0.75,0,0],[1,0.25,0],[1,0.5,0],[1,0.75,0],[0.75,1,0],[0.5,1,0],[0.25,1,0],[0,0.75,0],[0,0.5,0],[0,0.25,0]];verticalLabelPosition=bottom;html=1;verticalAlign=top;aspect=fixed;align=center;pointerEvents=1;shape=mxgraph.cisco19.cell_phone;fillColor=#005073;strokeColor=none;" vertex="1" parent="1">
          <mxGeometry x="40" y="240" width="25" height="50" as="geometry" />
        </mxCell>
        <mxCell id="hO-ZR4G2nl43DT18b6T9-38" style="edgeStyle=orthogonalEdgeStyle;rounded=0;orthogonalLoop=1;jettySize=auto;html=1;" edge="1" parent="1" source="hO-ZR4G2nl43DT18b6T9-2" target="hO-ZR4G2nl43DT18b6T9-5">
          <mxGeometry relative="1" as="geometry" />
        </mxCell>
        <mxCell id="hO-ZR4G2nl43DT18b6T9-2" value="" style="sketch=0;points=[[0.015,0.015,0],[0.985,0.015,0],[0.985,0.985,0],[0.015,0.985,0],[0.25,0,0],[0.5,0,0],[0.75,0,0],[1,0.25,0],[1,0.5,0],[1,0.75,0],[0.75,1,0],[0.5,1,0],[0.25,1,0],[0,0.75,0],[0,0.5,0],[0,0.25,0]];verticalLabelPosition=bottom;html=1;verticalAlign=top;aspect=fixed;align=center;pointerEvents=1;shape=mxgraph.cisco19.cell_phone;fillColor=#005073;strokeColor=none;" vertex="1" parent="1">
          <mxGeometry x="40" y="370" width="25" height="50" as="geometry" />
        </mxCell>
        <mxCell id="hO-ZR4G2nl43DT18b6T9-39" style="edgeStyle=orthogonalEdgeStyle;rounded=0;orthogonalLoop=1;jettySize=auto;html=1;" edge="1" parent="1" source="hO-ZR4G2nl43DT18b6T9-3" target="hO-ZR4G2nl43DT18b6T9-5">
          <mxGeometry relative="1" as="geometry" />
        </mxCell>
        <mxCell id="hO-ZR4G2nl43DT18b6T9-3" value="" style="sketch=0;points=[[0.015,0.015,0],[0.985,0.015,0],[0.985,0.985,0],[0.015,0.985,0],[0.25,0,0],[0.5,0,0],[0.75,0,0],[1,0.25,0],[1,0.5,0],[1,0.75,0],[0.75,1,0],[0.5,1,0],[0.25,1,0],[0,0.75,0],[0,0.5,0],[0,0.25,0]];verticalLabelPosition=bottom;html=1;verticalAlign=top;aspect=fixed;align=center;pointerEvents=1;shape=mxgraph.cisco19.cell_phone;fillColor=#005073;strokeColor=none;" vertex="1" parent="1">
          <mxGeometry x="40" y="500" width="25" height="50" as="geometry" />
        </mxCell>
        <mxCell id="hO-ZR4G2nl43DT18b6T9-5" value="Load Balancer" style="sketch=0;outlineConnect=0;fontColor=#232F3E;gradientColor=none;fillColor=#8C4FFF;strokeColor=none;dashed=0;verticalLabelPosition=bottom;verticalAlign=top;align=center;html=1;fontSize=12;fontStyle=0;aspect=fixed;pointerEvents=1;shape=mxgraph.aws4.classic_load_balancer;" vertex="1" parent="1">
          <mxGeometry x="130" y="356" width="78" height="78" as="geometry" />
        </mxCell>
        <mxCell id="hO-ZR4G2nl43DT18b6T9-43" style="edgeStyle=orthogonalEdgeStyle;rounded=0;orthogonalLoop=1;jettySize=auto;html=1;exitX=0.531;exitY=0.013;exitDx=0;exitDy=0;exitPerimeter=0;startArrow=classic;startFill=1;" edge="1" parent="1" source="hO-ZR4G2nl43DT18b6T9-6" target="hO-ZR4G2nl43DT18b6T9-15">
          <mxGeometry relative="1" as="geometry">
            <Array as="points">
              <mxPoint x="314" y="248" />
            </Array>
          </mxGeometry>
        </mxCell>
        <mxCell id="hO-ZR4G2nl43DT18b6T9-44" style="edgeStyle=orthogonalEdgeStyle;rounded=0;orthogonalLoop=1;jettySize=auto;html=1;startArrow=classic;startFill=1;" edge="1" parent="1" source="hO-ZR4G2nl43DT18b6T9-6" target="hO-ZR4G2nl43DT18b6T9-16">
          <mxGeometry relative="1" as="geometry" />
        </mxCell>
        <mxCell id="hO-ZR4G2nl43DT18b6T9-6" value="API Gateway" style="points=[];aspect=fixed;html=1;align=center;shadow=0;dashed=0;fillColor=#FF6A00;strokeColor=none;shape=mxgraph.alibaba_cloud.apigateway;verticalAlign=top;labelPosition=center;verticalLabelPosition=bottom;" vertex="1" parent="1">
          <mxGeometry x="270" y="351" width="82.88" height="80" as="geometry" />
        </mxCell>
        <mxCell id="hO-ZR4G2nl43DT18b6T9-14" value="Database" style="image;aspect=fixed;html=1;points=[];align=center;fontSize=12;image=img/lib/azure2/databases/Azure_Database_PostgreSQL_Server.svg;" vertex="1" parent="1">
          <mxGeometry x="690" y="214" width="48" height="64" as="geometry" />
        </mxCell>
        <mxCell id="hO-ZR4G2nl43DT18b6T9-15" value="Lending" style="image;aspect=fixed;html=1;points=[];align=center;fontSize=12;image=img/lib/azure2/compute/Azure_Spring_Cloud.svg;" vertex="1" parent="1">
          <mxGeometry x="430" y="214" width="68" height="68" as="geometry" />
        </mxCell>
        <mxCell id="hO-ZR4G2nl43DT18b6T9-16" value="Payments" style="image;aspect=fixed;html=1;points=[];align=center;fontSize=12;image=img/lib/azure2/compute/Azure_Spring_Cloud.svg;" vertex="1" parent="1">
          <mxGeometry x="430" y="357" width="68" height="68" as="geometry" />
        </mxCell>
        <mxCell id="hO-ZR4G2nl43DT18b6T9-17" value="Customer" style="image;aspect=fixed;html=1;points=[];align=center;fontSize=12;image=img/lib/azure2/compute/Azure_Spring_Cloud.svg;" vertex="1" parent="1">
          <mxGeometry x="430" y="500" width="68" height="68" as="geometry" />
        </mxCell>
        <mxCell id="hO-ZR4G2nl43DT18b6T9-18" value="Caching" style="image;sketch=0;aspect=fixed;html=1;points=[];align=center;fontSize=12;image=img/lib/mscae/Cache_Redis_Product.svg;" vertex="1" parent="1">
          <mxGeometry x="580" y="227" width="50" height="42" as="geometry" />
        </mxCell>
        <mxCell id="hO-ZR4G2nl43DT18b6T9-36" style="edgeStyle=orthogonalEdgeStyle;rounded=0;orthogonalLoop=1;jettySize=auto;html=1;" edge="1" parent="1" source="hO-ZR4G2nl43DT18b6T9-19">
          <mxGeometry relative="1" as="geometry">
            <mxPoint x="50" y="210" as="targetPoint" />
          </mxGeometry>
        </mxCell>
        <mxCell id="hO-ZR4G2nl43DT18b6T9-19" value="Notifications" style="image;aspect=fixed;html=1;points=[];align=center;fontSize=12;image=img/lib/azure2/compute/Azure_Spring_Cloud.svg;" vertex="1" parent="1">
          <mxGeometry x="260" y="50" width="68" height="68" as="geometry" />
        </mxCell>
        <mxCell id="hO-ZR4G2nl43DT18b6T9-20" value="Auditing" style="image;aspect=fixed;html=1;points=[];align=center;fontSize=12;image=img/lib/azure2/compute/Azure_Spring_Cloud.svg;" vertex="1" parent="1">
          <mxGeometry x="606.33" y="670" width="68" height="68" as="geometry" />
        </mxCell>
        <mxCell id="hO-ZR4G2nl43DT18b6T9-21" value="Database" style="image;aspect=fixed;html=1;points=[];align=center;fontSize=12;image=img/lib/azure2/databases/Azure_Database_PostgreSQL_Server.svg;" vertex="1" parent="1">
          <mxGeometry x="744.33" y="670" width="48" height="64" as="geometry" />
        </mxCell>
        <mxCell id="hO-ZR4G2nl43DT18b6T9-32" style="edgeStyle=orthogonalEdgeStyle;rounded=0;orthogonalLoop=1;jettySize=auto;html=1;entryX=-0.062;entryY=0.531;entryDx=0;entryDy=0;entryPerimeter=0;" edge="1" parent="1" source="hO-ZR4G2nl43DT18b6T9-18" target="hO-ZR4G2nl43DT18b6T9-14">
          <mxGeometry relative="1" as="geometry" />
        </mxCell>
        <mxCell id="hO-ZR4G2nl43DT18b6T9-33" style="edgeStyle=orthogonalEdgeStyle;rounded=0;orthogonalLoop=1;jettySize=auto;html=1;entryX=0.5;entryY=-0.024;entryDx=0;entryDy=0;entryPerimeter=0;exitX=0.583;exitY=0.016;exitDx=0;exitDy=0;exitPerimeter=0;" edge="1" parent="1" source="hO-ZR4G2nl43DT18b6T9-14" target="hO-ZR4G2nl43DT18b6T9-18">
          <mxGeometry relative="1" as="geometry" />
        </mxCell>
        <mxCell id="hO-ZR4G2nl43DT18b6T9-34" style="edgeStyle=orthogonalEdgeStyle;rounded=0;orthogonalLoop=1;jettySize=auto;html=1;entryX=-0.06;entryY=0.5;entryDx=0;entryDy=0;entryPerimeter=0;startArrow=classic;startFill=1;" edge="1" parent="1" source="hO-ZR4G2nl43DT18b6T9-15" target="hO-ZR4G2nl43DT18b6T9-18">
          <mxGeometry relative="1" as="geometry" />
        </mxCell>
        <mxCell id="hO-ZR4G2nl43DT18b6T9-42" style="edgeStyle=orthogonalEdgeStyle;rounded=0;orthogonalLoop=1;jettySize=auto;html=1;entryX=0.084;entryY=0.55;entryDx=0;entryDy=0;entryPerimeter=0;" edge="1" parent="1" source="hO-ZR4G2nl43DT18b6T9-5" target="hO-ZR4G2nl43DT18b6T9-6">
          <mxGeometry relative="1" as="geometry" />
        </mxCell>
        <mxCell id="hO-ZR4G2nl43DT18b6T9-47" style="edgeStyle=orthogonalEdgeStyle;rounded=0;orthogonalLoop=1;jettySize=auto;html=1;entryX=0;entryY=0.441;entryDx=0;entryDy=0;entryPerimeter=0;startArrow=classic;startFill=1;" edge="1" parent="1" source="hO-ZR4G2nl43DT18b6T9-6" target="hO-ZR4G2nl43DT18b6T9-17">
          <mxGeometry relative="1" as="geometry">
            <mxPoint x="310" y="460" as="sourcePoint" />
            <Array as="points">
              <mxPoint x="312" y="530" />
            </Array>
          </mxGeometry>
        </mxCell>
        <mxCell id="hO-ZR4G2nl43DT18b6T9-48" style="edgeStyle=orthogonalEdgeStyle;rounded=0;orthogonalLoop=1;jettySize=auto;html=1;entryX=-0.042;entryY=0.531;entryDx=0;entryDy=0;entryPerimeter=0;" edge="1" parent="1" source="hO-ZR4G2nl43DT18b6T9-20" target="hO-ZR4G2nl43DT18b6T9-21">
          <mxGeometry relative="1" as="geometry" />
        </mxCell>
        <mxCell id="hO-ZR4G2nl43DT18b6T9-50" style="edgeStyle=orthogonalEdgeStyle;rounded=0;orthogonalLoop=1;jettySize=auto;html=1;" edge="1" parent="1" source="hO-ZR4G2nl43DT18b6T9-49">
          <mxGeometry relative="1" as="geometry">
            <mxPoint x="604.33" y="702" as="targetPoint" />
          </mxGeometry>
        </mxCell>
        <mxCell id="hO-ZR4G2nl43DT18b6T9-49" value="Message Queue" style="sketch=0;aspect=fixed;pointerEvents=1;shadow=0;dashed=0;html=1;strokeColor=none;labelPosition=center;verticalLabelPosition=bottom;verticalAlign=top;align=center;fillColor=#00188D;shape=mxgraph.azure.queue_generic" vertex="1" parent="1">
          <mxGeometry x="421" y="682" width="133.33" height="40" as="geometry" />
        </mxCell>
        <mxCell id="hO-ZR4G2nl43DT18b6T9-52" style="edgeStyle=orthogonalEdgeStyle;rounded=0;orthogonalLoop=1;jettySize=auto;html=1;entryX=0.458;entryY=0;entryDx=0;entryDy=0;entryPerimeter=0;" edge="1" parent="1" source="hO-ZR4G2nl43DT18b6T9-9" target="hO-ZR4G2nl43DT18b6T9-49">
          <mxGeometry relative="1" as="geometry" />
        </mxCell>
        <mxCell id="hO-ZR4G2nl43DT18b6T9-53" value="Message Queue" style="sketch=0;aspect=fixed;pointerEvents=1;shadow=0;dashed=0;html=1;strokeColor=none;labelPosition=center;verticalLabelPosition=bottom;verticalAlign=top;align=center;fillColor=#00188D;shape=mxgraph.azure.queue_generic" vertex="1" parent="1">
          <mxGeometry x="397.34000000000003" y="64" width="133.33" height="40" as="geometry" />
        </mxCell>
        <mxCell id="hO-ZR4G2nl43DT18b6T9-54" style="edgeStyle=orthogonalEdgeStyle;rounded=0;orthogonalLoop=1;jettySize=auto;html=1;exitX=0.75;exitY=0;exitDx=0;exitDy=0;entryX=0.552;entryY=1.4;entryDx=0;entryDy=0;entryPerimeter=0;" edge="1" parent="1" source="hO-ZR4G2nl43DT18b6T9-9" target="hO-ZR4G2nl43DT18b6T9-53">
          <mxGeometry relative="1" as="geometry" />
        </mxCell>
        <mxCell id="hO-ZR4G2nl43DT18b6T9-56" style="edgeStyle=orthogonalEdgeStyle;rounded=0;orthogonalLoop=1;jettySize=auto;html=1;entryX=0.956;entryY=0.5;entryDx=0;entryDy=0;entryPerimeter=0;" edge="1" parent="1" source="hO-ZR4G2nl43DT18b6T9-53" target="hO-ZR4G2nl43DT18b6T9-19">
          <mxGeometry relative="1" as="geometry" />
        </mxCell>
        <mxCell id="hO-ZR4G2nl43DT18b6T9-57" value="Database" style="image;aspect=fixed;html=1;points=[];align=center;fontSize=12;image=img/lib/azure2/databases/Azure_Database_PostgreSQL_Server.svg;" vertex="1" parent="1">
          <mxGeometry x="690" y="350" width="48" height="64" as="geometry" />
        </mxCell>
        <mxCell id="hO-ZR4G2nl43DT18b6T9-58" value="Caching" style="image;sketch=0;aspect=fixed;html=1;points=[];align=center;fontSize=12;image=img/lib/mscae/Cache_Redis_Product.svg;" vertex="1" parent="1">
          <mxGeometry x="580" y="363" width="50" height="42" as="geometry" />
        </mxCell>
        <mxCell id="hO-ZR4G2nl43DT18b6T9-59" style="edgeStyle=orthogonalEdgeStyle;rounded=0;orthogonalLoop=1;jettySize=auto;html=1;entryX=-0.062;entryY=0.531;entryDx=0;entryDy=0;entryPerimeter=0;" edge="1" parent="1" source="hO-ZR4G2nl43DT18b6T9-58" target="hO-ZR4G2nl43DT18b6T9-57">
          <mxGeometry relative="1" as="geometry" />
        </mxCell>
        <mxCell id="hO-ZR4G2nl43DT18b6T9-60" style="edgeStyle=orthogonalEdgeStyle;rounded=0;orthogonalLoop=1;jettySize=auto;html=1;entryX=0.5;entryY=-0.024;entryDx=0;entryDy=0;entryPerimeter=0;exitX=0.583;exitY=0.016;exitDx=0;exitDy=0;exitPerimeter=0;" edge="1" parent="1" source="hO-ZR4G2nl43DT18b6T9-57" target="hO-ZR4G2nl43DT18b6T9-58">
          <mxGeometry relative="1" as="geometry" />
        </mxCell>
        <mxCell id="hO-ZR4G2nl43DT18b6T9-61" value="Database" style="image;aspect=fixed;html=1;points=[];align=center;fontSize=12;image=img/lib/azure2/databases/Azure_Database_PostgreSQL_Server.svg;" vertex="1" parent="1">
          <mxGeometry x="690" y="504" width="48" height="64" as="geometry" />
        </mxCell>
        <mxCell id="hO-ZR4G2nl43DT18b6T9-62" value="Caching" style="image;sketch=0;aspect=fixed;html=1;points=[];align=center;fontSize=12;image=img/lib/mscae/Cache_Redis_Product.svg;" vertex="1" parent="1">
          <mxGeometry x="580" y="517" width="50" height="42" as="geometry" />
        </mxCell>
        <mxCell id="hO-ZR4G2nl43DT18b6T9-63" style="edgeStyle=orthogonalEdgeStyle;rounded=0;orthogonalLoop=1;jettySize=auto;html=1;entryX=-0.062;entryY=0.531;entryDx=0;entryDy=0;entryPerimeter=0;" edge="1" parent="1" source="hO-ZR4G2nl43DT18b6T9-62" target="hO-ZR4G2nl43DT18b6T9-61">
          <mxGeometry relative="1" as="geometry" />
        </mxCell>
        <mxCell id="hO-ZR4G2nl43DT18b6T9-64" style="edgeStyle=orthogonalEdgeStyle;rounded=0;orthogonalLoop=1;jettySize=auto;html=1;entryX=0.5;entryY=-0.024;entryDx=0;entryDy=0;entryPerimeter=0;exitX=0.583;exitY=0.016;exitDx=0;exitDy=0;exitPerimeter=0;" edge="1" parent="1" source="hO-ZR4G2nl43DT18b6T9-61" target="hO-ZR4G2nl43DT18b6T9-62">
          <mxGeometry relative="1" as="geometry" />
        </mxCell>
        <mxCell id="hO-ZR4G2nl43DT18b6T9-65" style="edgeStyle=orthogonalEdgeStyle;rounded=0;orthogonalLoop=1;jettySize=auto;html=1;entryX=0;entryY=0.667;entryDx=0;entryDy=0;entryPerimeter=0;startArrow=classic;startFill=1;" edge="1" parent="1" source="hO-ZR4G2nl43DT18b6T9-16" target="hO-ZR4G2nl43DT18b6T9-58">
          <mxGeometry relative="1" as="geometry" />
        </mxCell>
        <mxCell id="hO-ZR4G2nl43DT18b6T9-66" style="edgeStyle=orthogonalEdgeStyle;rounded=0;orthogonalLoop=1;jettySize=auto;html=1;entryX=0;entryY=0.405;entryDx=0;entryDy=0;entryPerimeter=0;startArrow=classic;startFill=1;" edge="1" parent="1" source="hO-ZR4G2nl43DT18b6T9-17" target="hO-ZR4G2nl43DT18b6T9-62">
          <mxGeometry relative="1" as="geometry" />
        </mxCell>
        <mxCell id="hO-ZR4G2nl43DT18b6T9-67" value="&lt;u&gt;&lt;b&gt;TODO&lt;/b&gt;&lt;/u&gt;&lt;div&gt;1. Define Tech Stack&lt;/div&gt;&lt;div&gt;2. Third Party integration&lt;/div&gt;&lt;div&gt;3. Inter API load balancing&lt;/div&gt;&lt;div&gt;4. Horizontal API scaling example&lt;/div&gt;&lt;div&gt;5. Rate limiting&lt;/div&gt;&lt;div&gt;6. Gateway validation&lt;/div&gt;&lt;div&gt;7. Gateway auth&lt;/div&gt;&lt;div&gt;8. Gateway caching and database&lt;/div&gt;&lt;div&gt;9. Blue/ green deployments&lt;/div&gt;" style="shape=note;whiteSpace=wrap;html=1;backgroundOutline=1;fontColor=#000000;darkOpacity=0.05;fillColor=#FFF9B2;strokeColor=none;fillStyle=solid;direction=west;gradientDirection=north;gradientColor=#FFF2A1;shadow=1;size=20;pointerEvents=1;align=left;" vertex="1" parent="1">
          <mxGeometry x="870" y="63" width="230" height="207" as="geometry" />
        </mxCell>
      </root>
    </mxGraphModel>
  </diagram>
</mxfile>
